<svg xmlns="http://www.w3.org/2000/svg" viewBox="0 0 800 600" fill="none">
  <defs>
    <pattern id="grid" width="40" height="40" patternUnits="userSpaceOnUse">
      <path d="M40 0H0V40" fill="none" stroke="#E2E6EA" stroke-width="1"/>
    </pattern>
    <marker id="arw" markerWidth="9" markerHeight="9" refX="6.5" refY="3" orient="auto">
      <path d="M0,0 L6.5,3 L0,6 Z" fill="#FF6A00"/>
    </marker>
  </defs>

  <rect width="800" height="600" fill="#F4F6F8"/>
  <rect width="800" height="600" fill="url(#grid)"/>

  <!-- Connectors core -> nodes -->
  <g stroke="#FF6A00" stroke-width="2.4" opacity="0.4">
    <path d="M400 285 L190 165"/>
    <path d="M400 285 L610 165"/>
    <path d="M400 285 L190 405"/>
    <path d="M400 285 L610 405"/>
  </g>

  <!-- ── Node: Websites (NW) ───────────────────────────── -->
  <circle cx="190" cy="165" r="44" fill="#FFFFFF" stroke="#D7DBE0" stroke-width="2"/>
  <rect x="168" y="150" width="44" height="30" rx="4" fill="#FFFFFF" stroke="#2A2E35" stroke-width="2"/>
  <line x1="168" y1="160" x2="212" y2="160" stroke="#2A2E35" stroke-width="1.5"/>
  <circle cx="174" cy="155" r="2" fill="#C9CED4"/>
  <circle cx="181" cy="155" r="2" fill="#FF6A00"/>
  <line x1="174" y1="167" x2="200" y2="167" stroke="#C9CED4" stroke-width="2"/>
  <line x1="174" y1="173" x2="192" y2="173" stroke="#C9CED4" stroke-width="2"/>
  <text x="190" y="228" text-anchor="middle" font-family="Space Grotesk, Arial, sans-serif" font-size="16" font-weight="600" fill="#2A2E35">Websites</text>

  <!-- ── Node: Automations (NE) ────────────────────────── -->
  <circle cx="610" cy="165" r="44" fill="#FFFFFF" stroke="#D7DBE0" stroke-width="2"/>
  <circle cx="610" cy="165" r="16" fill="none" stroke="#2A2E35" stroke-width="2"/>
  <circle cx="610" cy="165" r="6" fill="#FF6A00"/>
  <g stroke="#2A2E35" stroke-width="2.2">
    <line x1="626" y1="165" x2="633" y2="165"/>
    <line x1="610" y1="181" x2="610" y2="188"/>
    <line x1="594" y1="165" x2="587" y2="165"/>
    <line x1="610" y1="149" x2="610" y2="142"/>
    <line x1="621.3" y1="176.3" x2="626.3" y2="181.3"/>
    <line x1="598.7" y1="176.3" x2="593.7" y2="181.3"/>
    <line x1="598.7" y1="153.7" x2="593.7" y2="148.7"/>
    <line x1="621.3" y1="153.7" x2="626.3" y2="148.7"/>
  </g>
  <text x="610" y="228" text-anchor="middle" font-family="Space Grotesk, Arial, sans-serif" font-size="16" font-weight="600" fill="#2A2E35">Automations</text>

  <!-- ── Node: AI Agents (SW) ──────────────────────────── -->
  <circle cx="190" cy="405" r="44" fill="#FFFFFF" stroke="#D7DBE0" stroke-width="2"/>
  <rect x="168" y="390" width="44" height="28" rx="8" fill="#FFFFFF" stroke="#2A2E35" stroke-width="2"/>
  <path d="M180 418 L180 426 L190 418 Z" fill="#FFFFFF" stroke="#2A2E35" stroke-width="2" stroke-linejoin="round"/>
  <circle cx="184" cy="401" r="2.5" fill="#FF6A00"/>
  <line x1="191" y1="400" x2="205" y2="400" stroke="#C9CED4" stroke-width="2"/>
  <line x1="191" y1="406" x2="201" y2="406" stroke="#C9CED4" stroke-width="2"/>
  <text x="190" y="470" text-anchor="middle" font-family="Space Grotesk, Arial, sans-serif" font-size="16" font-weight="600" fill="#2A2E35">AI Agents</text>

  <!-- ── Node: Growth (SE) ─────────────────────────────── -->
  <circle cx="610" cy="405" r="44" fill="#FFFFFF" stroke="#D7DBE0" stroke-width="2"/>
  <rect x="593" y="411" width="8" height="11" fill="#C9CED4"/>
  <rect x="604" y="404" width="8" height="18" fill="#C9CED4"/>
  <rect x="615" y="396" width="8" height="26" fill="#FF6A00"/>
  <path d="M590 416 L624 394" stroke="#FF6A00" stroke-width="2.4" marker-end="url(#arw)"/>
  <text x="610" y="470" text-anchor="middle" font-family="Space Grotesk, Arial, sans-serif" font-size="16" font-weight="600" fill="#2A2E35">Growth</text>

  <!-- ── Core: AI ──────────────────────────────────────── -->
  <circle cx="400" cy="285" r="74" fill="#FF6A00" opacity="0.06"/>
  <circle cx="400" cy="285" r="74" fill="none" stroke="#FF6A00" stroke-width="1.5" opacity="0.45"/>
  <path d="M400 227 L450 256 L450 314 L400 343 L350 314 L350 256 Z" fill="#FFFFFF" stroke="#2A2E35" stroke-width="2.6" stroke-linejoin="round"/>
  <text x="400" y="297" text-anchor="middle" font-family="Space Grotesk, Arial, sans-serif" font-size="34" font-weight="700" letter-spacing="1" fill="#2A2E35">AI</text>

  <!-- Title block -->
  <rect x="556" y="520" width="234" height="56" rx="4" fill="none" stroke="#C9CED4" stroke-width="1.4"/>
  <line x1="556" y1="546" x2="790" y2="546" stroke="#C9CED4" stroke-width="1.2"/>
  <text x="568" y="538" font-family="Space Grotesk, Arial, sans-serif" font-size="13" font-weight="600" letter-spacing="1.5" fill="#2A2E35">STRATA LABS · AI TRANSFORMATION</text>
  <text x="568" y="564" font-family="Consolas, monospace" font-size="11" fill="#5A5F66">SCOPE  Websites · Automations · Agents</text>
</svg>
